<svg width="37" height="36" viewBox="0 0 37 36" fill="none" xmlns="http://www.w3.org/2000/svg">
<path d="M14.1641 1.56885C13.5891 1.56885 13.0376 1.78524 12.6311 2.17041C12.2245 2.55559 11.9961 3.07799 11.9961 3.62271V11.8382H3.32422C2.74924 11.8382 2.19781 12.0546 1.79123 12.4397C1.38466 12.8249 1.15625 13.3473 1.15625 13.892V22.1075C1.15625 22.6522 1.38466 23.1746 1.79123 23.5598C2.19781 23.945 2.74924 24.1614 3.32422 24.1614H11.9961V32.3768C11.9961 32.9215 12.2245 33.444 12.6311 33.8291C13.0376 34.2143 13.5891 34.4307 14.1641 34.4307H22.8359C23.4109 34.4307 23.9623 34.2143 24.3689 33.8291C24.7755 33.444 25.0039 32.9215 25.0039 32.3768V24.1614H33.6758C34.2508 24.1614 34.8022 23.945 35.2088 23.5598C35.6153 23.1746 35.8438 22.6522 35.8438 22.1075V13.892C35.8438 13.3473 35.6153 12.8249 35.2088 12.4397C34.8022 12.0546 34.2508 11.8382 33.6758 11.8382H25.0039V3.62271C25.0039 3.07799 24.7755 2.55559 24.3689 2.17041C23.9623 1.78524 23.4109 1.56885 22.8359 1.56885H14.1641Z" fill="#66D37E"/>
</svg>
